<svg width="1561" height="296" viewBox="0 0 1561 296" fill="none" xmlns="http://www.w3.org/2000/svg">
<path d="M17.5494 19H15.0894L15.0694 9.72L10.4694 17.4H9.30937L4.70937 9.84V19H2.22937V5H4.36937L9.92937 14.28L15.3894 5H17.5294L17.5494 19ZM29.9309 13.72C29.9309 13.92 29.9109 14.22 29.8909 14.46H21.5109C21.8109 16.02 23.1109 17.02 24.9709 17.02C26.1709 17.02 27.1109 16.64 27.8709 15.86L29.2109 17.4C28.2509 18.54 26.7509 19.14 24.9109 19.14C21.3309 19.14 19.0109 16.84 19.0109 13.66C19.0109 10.48 21.3509 8.2 24.5309 8.2C27.6509 8.2 29.9309 10.38 29.9309 13.72ZM24.5309 10.2C22.9109 10.2 21.7309 11.24 21.4909 12.8H27.5509C27.3509 11.26 26.1709 10.2 24.5309 10.2ZM39.0923 4.16H41.5923V19H39.1923V17.62C38.3523 18.64 37.1123 19.14 35.6523 19.14C32.5523 19.14 30.2523 16.98 30.2523 13.66C30.2523 10.34 32.5523 8.2 35.6523 8.2C37.0323 8.2 38.2523 8.66 39.0923 9.64V4.16ZM35.9523 17C37.7523 17 39.1323 15.7 39.1323 13.66C39.1323 11.62 37.7523 10.32 35.9523 10.32C34.1523 10.32 32.7723 11.62 32.7723 13.66C32.7723 15.7 34.1523 17 35.9523 17ZM47.7428 8.2C50.8228 8.2 52.6028 9.66 52.6028 12.74V19H50.2428V17.7C49.6428 18.62 48.4828 19.14 46.8828 19.14C44.4428 19.14 42.9028 17.8 42.9028 15.94C42.9028 14.16 44.1028 12.76 47.3428 12.76H50.1028V12.6C50.1028 11.14 49.2228 10.28 47.4428 10.28C46.2428 10.28 45.0028 10.68 44.2028 11.34L43.2228 9.52C44.3628 8.64 46.0228 8.2 47.7428 8.2ZM47.4028 17.32C48.6228 17.32 49.6828 16.76 50.1028 15.66V14.42H47.5228C45.8228 14.42 45.3628 15.06 45.3628 15.84C45.3628 16.74 46.1228 17.32 47.4028 17.32ZM54.6112 19V4.16H57.1112V19H54.6112ZM79.0798 19H76.6198L76.5998 9.72L71.9998 17.4H70.8398L66.2398 9.84V19H63.7598V5H65.8998L71.4598 14.28L76.9198 5H79.0598L79.0798 19ZM86.2214 19.14C82.9414 19.14 80.5414 16.86 80.5414 13.66C80.5414 10.46 82.9414 8.2 86.2214 8.2C89.5414 8.2 91.9214 10.46 91.9214 13.66C91.9214 16.86 89.5414 19.14 86.2214 19.14ZM86.2214 17C88.0414 17 89.4014 15.7 89.4014 13.66C89.4014 11.62 88.0414 10.32 86.2214 10.32C84.4214 10.32 83.0614 11.62 83.0614 13.66C83.0614 15.7 84.4214 17 86.2214 17ZM106.592 8.2C109.172 8.2 110.972 9.66 110.972 12.88V19H108.472V13.2C108.472 11.3 107.592 10.38 106.072 10.38C104.432 10.38 103.292 11.46 103.292 13.58V19H100.792V13.2C100.792 11.3 99.912 10.38 98.392 10.38C96.732 10.38 95.612 11.46 95.612 13.58V19H93.112V8.32H95.492V9.68C96.292 8.72 97.532 8.2 98.992 8.2C100.552 8.2 101.852 8.78 102.592 9.98C103.452 8.88 104.892 8.2 106.592 8.2ZM123.104 13.72C123.104 13.92 123.084 14.22 123.064 14.46H114.684C114.984 16.02 116.284 17.02 118.144 17.02C119.344 17.02 120.284 16.64 121.044 15.86L122.384 17.4C121.424 18.54 119.924 19.14 118.084 19.14C114.504 19.14 112.184 16.84 112.184 13.66C112.184 10.48 114.524 8.2 117.704 8.2C120.824 8.2 123.104 10.38 123.104 13.72ZM117.704 10.2C116.084 10.2 114.904 11.24 114.664 12.8H120.724C120.524 11.26 119.344 10.2 117.704 10.2ZM130.366 8.2C132.926 8.2 134.826 9.66 134.826 12.88V19H132.326V13.2C132.326 11.3 131.386 10.38 129.786 10.38C128.006 10.38 126.806 11.46 126.806 13.6V19H124.306V8.32H126.686V9.7C127.506 8.72 128.806 8.2 130.366 8.2ZM142.517 16.64L143.217 18.42C142.617 18.9 141.717 19.14 140.817 19.14C138.477 19.14 137.137 17.9 137.137 15.54V10.4H135.377V8.4H137.137V5.96H139.637V8.4H142.497V10.4H139.637V15.48C139.637 16.52 140.157 17.08 141.117 17.08C141.637 17.08 142.137 16.94 142.517 16.64ZM147.374 19.14C145.594 19.14 143.814 18.62 142.854 17.94L143.814 16.04C144.754 16.66 146.194 17.1 147.534 17.1C149.114 17.1 149.774 16.66 149.774 15.92C149.774 13.88 143.174 15.8 143.174 11.54C143.174 9.52 144.994 8.2 147.874 8.2C149.294 8.2 150.914 8.54 151.874 9.12L150.914 11.02C149.894 10.42 148.874 10.22 147.854 10.22C146.334 10.22 145.614 10.72 145.614 11.42C145.614 13.58 152.214 11.66 152.214 15.84C152.214 17.84 150.374 19.14 147.374 19.14Z" fill="black"/>
<path d="M0.349365 48C0.349365 42.4772 4.82652 38 10.3494 38H374.349C379.872 38 384.349 42.4772 384.349 48V254H0.349365V48Z" fill="white"/>
<path fill-rule="evenodd" clip-rule="evenodd" d="M374.349 39H10.3494C5.3788 39 1.34937 43.0294 1.34937 48V253H383.349V48C383.349 43.0294 379.32 39 374.349 39ZM10.3494 38C4.82652 38 0.349365 42.4772 0.349365 48V254H384.349V48C384.349 42.4772 379.872 38 374.349 38H10.3494Z" fill="black"/>
<path fill-rule="evenodd" clip-rule="evenodd" d="M0.349416 254L381.432 42.3367L381.918 43.2109L0.834973 254.874L0.349416 254Z" fill="black" fill-opacity="0.35"/>
<path fill-rule="evenodd" clip-rule="evenodd" d="M383.86 253.49L3.34938 42.3363L3.83459 41.4619L384.345 252.615L383.86 253.49Z" fill="black" fill-opacity="0.35"/>
<rect x="132.102" y="103.054" width="121.393" height="85.4462" fill="white"/>
<path d="M168.347 140.5C174.699 140.5 179.847 135.351 179.847 129C179.847 122.649 174.699 117.5 168.347 117.5C161.996 117.5 156.847 122.649 156.847 129C156.847 135.351 161.996 140.5 168.347 140.5Z" fill="#90979F" fill-opacity="0.55"/>
<path d="M249.857 103.5H137.837C133.987 103.5 130.847 106.64 130.847 110.49V181.51C130.847 183.44 131.627 185.18 132.897 186.45C134.167 187.72 135.907 188.5 137.837 188.5H249.857C253.707 188.5 256.847 185.36 256.847 181.51V110.49C256.847 106.64 253.707 103.5 249.857 103.5ZM134.847 181.51V110.49C134.847 108.84 136.187 107.5 137.837 107.5H249.857C251.507 107.5 252.847 108.84 252.847 110.49V181.51C252.847 182.229 252.598 182.879 252.168 183.389L209.647 132.45C209.227 131.96 208.467 131.96 208.047 132.45L177.447 169.1L164.577 156.23C164.177 155.83 163.517 155.83 163.117 156.23L135.727 183.62C135.187 183.08 134.847 182.34 134.847 181.51Z" fill="#90979F" fill-opacity="0.55"/>
<path d="M0.349365 252.874H384.349V284.874C384.349 290.397 379.872 294.874 374.349 294.874H10.3494C4.82653 294.874 0.349365 290.397 0.349365 284.874V252.874Z" fill="#1E1E1E"/>
<path d="M13.9974 279.374V270.286H10.4134V268.174H20.1734V270.286H16.5894V279.374H13.9974ZM23.824 277.294H29.92V279.374H21.248V268.174H29.712V270.254H23.824V272.686H29.024V274.702H23.824V277.294ZM40.0304 279.374L39.0384 276.974H33.8384L32.8464 279.374H30.1904L35.1824 268.174H37.7424L42.7504 279.374H40.0304ZM34.6704 275.006H38.2224L36.4464 270.718L34.6704 275.006ZM56.2164 279.374H53.7844L53.7684 272.654L50.4724 278.19H49.3044L46.0244 272.798V279.374H43.5924V268.174H45.7364L49.9284 275.134L54.0564 268.174H56.1844L56.2164 279.374ZM67.7409 279.566C64.5569 279.566 62.6689 277.742 62.6689 274.446V268.174H65.2609V274.35C65.2609 276.478 66.1889 277.358 67.7569 277.358C69.3409 277.358 70.2529 276.478 70.2529 274.35V268.174H72.8129V274.446C72.8129 277.742 70.9249 279.566 67.7409 279.566ZM78.7342 279.566C76.9582 279.566 75.1662 279.038 74.1742 278.27L75.0542 276.318C75.9982 277.006 77.4062 277.486 78.7502 277.486C80.2862 277.486 80.9102 276.974 80.9102 276.286C80.9102 274.19 74.3982 275.63 74.3982 271.47C74.3982 269.566 75.9342 267.982 79.1182 267.982C80.5262 267.982 81.9662 268.318 83.0062 268.974L82.2062 270.942C81.1662 270.35 80.0942 270.062 79.1022 270.062C77.5662 270.062 76.9742 270.638 76.9742 271.342C76.9742 273.406 83.4862 271.982 83.4862 276.094C83.4862 277.966 81.9342 279.566 78.7342 279.566ZM93.3054 279.374L92.3134 276.974H87.1134L86.1214 279.374H83.4654L88.4574 268.174H91.0174L96.0254 279.374H93.3054ZM87.9454 275.006H91.4974L89.7214 270.718L87.9454 275.006ZM97.7916 273.758C96.9276 273.758 96.2396 273.102 96.2396 272.19C96.2396 271.262 96.9276 270.654 97.7916 270.654C98.6556 270.654 99.3436 271.262 99.3436 272.19C99.3436 273.102 98.6556 273.758 97.7916 273.758ZM97.7916 279.502C96.9276 279.502 96.2396 278.846 96.2396 277.934C96.2396 277.006 96.9276 276.398 97.7916 276.398C98.6556 276.398 99.3436 277.006 99.3436 277.934C99.3436 278.846 98.6556 279.502 97.7916 279.502ZM112.67 276.878V273.598H115.038V278.142C113.806 279.07 112.11 279.566 110.51 279.566C106.99 279.566 104.398 277.15 104.398 273.774C104.398 270.398 106.99 267.982 110.558 267.982C112.526 267.982 114.158 268.654 115.246 269.918L113.582 271.454C112.766 270.59 111.822 270.19 110.686 270.19C108.51 270.19 107.022 271.646 107.022 273.774C107.022 275.87 108.51 277.358 110.654 277.358C111.358 277.358 112.014 277.23 112.67 276.878ZM122.55 279.566C119.014 279.566 116.422 277.102 116.422 273.774C116.422 270.446 119.014 267.982 122.55 267.982C126.07 267.982 128.678 270.43 128.678 273.774C128.678 277.118 126.07 279.566 122.55 279.566ZM122.55 277.358C124.55 277.358 126.054 275.902 126.054 273.774C126.054 271.646 124.55 270.19 122.55 270.19C120.55 270.19 119.046 271.646 119.046 273.774C119.046 275.902 120.55 277.358 122.55 277.358ZM130.306 279.374V268.174H132.898V277.262H138.514V279.374H130.306ZM139.642 279.374V268.174H144.73C148.394 268.174 150.906 270.382 150.906 273.774C150.906 277.166 148.394 279.374 144.73 279.374H139.642ZM142.234 277.246H144.602C146.826 277.246 148.282 275.918 148.282 273.774C148.282 271.63 146.826 270.302 144.602 270.302H142.234V277.246ZM169.376 279.374H166.944L166.928 272.654L163.632 278.19H162.464L159.184 272.798V279.374H156.752V268.174H158.896L163.088 275.134L167.216 268.174H169.344L169.376 279.374ZM174.29 277.294H180.386V279.374H171.714V268.174H180.178V270.254H174.29V272.686H179.49V274.702H174.29V277.294ZM182.128 279.374V268.174H187.216C190.88 268.174 193.392 270.382 193.392 273.774C193.392 277.166 190.88 279.374 187.216 279.374H182.128ZM184.72 277.246H187.088C189.312 277.246 190.768 275.918 190.768 273.774C190.768 271.63 189.312 270.302 187.088 270.302H184.72V277.246ZM203.238 279.374L202.246 276.974H197.046L196.054 279.374H193.398L198.39 268.174H200.95L205.958 279.374H203.238ZM197.878 275.006H201.43L199.654 270.718L197.878 275.006ZM206.8 279.374V268.174H209.392V277.262H215.008V279.374H206.8ZM219.754 279.566C217.978 279.566 216.186 279.038 215.194 278.27L216.074 276.318C217.018 277.006 218.426 277.486 219.77 277.486C221.306 277.486 221.93 276.974 221.93 276.286C221.93 274.19 215.418 275.63 215.418 271.47C215.418 269.566 216.954 267.982 220.138 267.982C221.546 267.982 222.986 268.318 224.026 268.974L223.226 270.942C222.186 270.35 221.114 270.062 220.122 270.062C218.586 270.062 217.994 270.638 217.994 271.342C217.994 273.406 224.506 271.982 224.506 276.094C224.506 277.966 222.954 279.566 219.754 279.566Z" fill="white"/>
<path d="M392.349 48C392.349 42.4772 396.827 38 402.349 38H766.349C771.872 38 776.349 42.4772 776.349 48V254H392.349V48Z" fill="white"/>
<path fill-rule="evenodd" clip-rule="evenodd" d="M766.349 39H402.349C397.379 39 393.349 43.0294 393.349 48V253H775.349V48C775.349 43.0294 771.32 39 766.349 39ZM402.349 38C396.827 38 392.349 42.4772 392.349 48V254H776.349V48C776.349 42.4772 771.872 38 766.349 38H402.349Z" fill="black"/>
<path fill-rule="evenodd" clip-rule="evenodd" d="M392.349 254L773.432 42.3367L773.918 43.2109L392.835 254.874L392.349 254Z" fill="black" fill-opacity="0.35"/>
<path fill-rule="evenodd" clip-rule="evenodd" d="M775.86 253.49L395.349 42.3363L395.835 41.4619L776.345 252.615L775.86 253.49Z" fill="black" fill-opacity="0.35"/>
<rect x="524.102" y="103.054" width="121.393" height="85.4462" fill="white"/>
<path d="M560.347 140.5C566.699 140.5 571.847 135.351 571.847 129C571.847 122.649 566.699 117.5 560.347 117.5C553.996 117.5 548.847 122.649 548.847 129C548.847 135.351 553.996 140.5 560.347 140.5Z" fill="#90979F" fill-opacity="0.55"/>
<path d="M641.857 103.5H529.837C525.987 103.5 522.847 106.64 522.847 110.49V181.51C522.847 183.44 523.627 185.18 524.897 186.45C526.167 187.72 527.907 188.5 529.837 188.5H641.857C645.707 188.5 648.847 185.36 648.847 181.51V110.49C648.847 106.64 645.707 103.5 641.857 103.5ZM526.847 181.51V110.49C526.847 108.84 528.187 107.5 529.837 107.5H641.857C643.507 107.5 644.847 108.84 644.847 110.49V181.51C644.847 182.229 644.598 182.879 644.168 183.389L601.647 132.45C601.227 131.96 600.467 131.96 600.047 132.45L569.447 169.1L556.577 156.23C556.177 155.83 555.517 155.83 555.117 156.23L527.727 183.62C527.187 183.08 526.847 182.34 526.847 181.51Z" fill="#90979F" fill-opacity="0.55"/>
<path d="M392.349 252.874H776.349V284.874C776.349 290.397 771.872 294.874 766.349 294.874H402.349C396.827 294.874 392.349 290.397 392.349 284.874V252.874Z" fill="#1E1E1E"/>
<path d="M408.653 279.566C405.469 279.566 403.581 277.742 403.581 274.446V268.174H406.173V274.35C406.173 276.478 407.101 277.358 408.669 277.358C410.253 277.358 411.165 276.478 411.165 274.35V268.174H413.725V274.446C413.725 277.742 411.837 279.566 408.653 279.566ZM419.647 279.566C417.871 279.566 416.079 279.038 415.087 278.27L415.967 276.318C416.911 277.006 418.319 277.486 419.663 277.486C421.199 277.486 421.823 276.974 421.823 276.286C421.823 274.19 415.311 275.63 415.311 271.47C415.311 269.566 416.847 267.982 420.031 267.982C421.439 267.982 422.879 268.318 423.919 268.974L423.119 270.942C422.079 270.35 421.007 270.062 420.015 270.062C418.479 270.062 417.887 270.638 417.887 271.342C417.887 273.406 424.399 271.982 424.399 276.094C424.399 277.966 422.847 279.566 419.647 279.566ZM434.218 279.374L433.226 276.974H428.026L427.034 279.374H424.378L429.37 268.174H431.93L436.938 279.374H434.218ZM428.858 275.006H432.41L430.634 270.718L428.858 275.006ZM436.724 272.718L436.564 268.174H438.692L438.516 272.718H436.724ZM444.155 279.566C442.379 279.566 440.587 279.038 439.595 278.27L440.475 276.318C441.419 277.006 442.827 277.486 444.171 277.486C445.707 277.486 446.331 276.974 446.331 276.286C446.331 274.19 439.819 275.63 439.819 271.47C439.819 269.566 441.355 267.982 444.539 267.982C445.947 267.982 447.387 268.318 448.427 268.974L447.627 270.942C446.587 270.35 445.515 270.062 444.523 270.062C442.987 270.062 442.395 270.638 442.395 271.342C442.395 273.406 448.907 271.982 448.907 276.094C448.907 277.966 447.355 279.566 444.155 279.566ZM454.57 279.374V268.174H457.162V277.262H462.778V279.374H454.57ZM466.482 277.294H472.578V279.374H463.906V268.174H472.37V270.254H466.482V272.686H471.682V274.702H466.482V277.294ZM476.896 277.294H482.992V279.374H474.32V268.174H482.784V270.254H476.896V272.686H482.096V274.702H476.896V277.294ZM496.61 279.374L493.026 274.974L491.522 276.542V279.374H488.946V268.174H491.522V273.406L496.482 268.174H499.362L494.722 273.166L499.634 279.374H496.61ZM500.47 279.374V268.174H503.062V279.374H500.47ZM507.976 277.294H514.072V279.374H505.4V268.174H513.864V270.254H507.976V272.686H513.176V274.702H507.976V277.294ZM524.278 270.254H518.406V273.214H523.59V275.294H518.406V279.374H515.814V268.174H524.278V270.254ZM528.289 277.294H534.385V279.374H525.713V268.174H534.177V270.254H528.289V272.686H533.489V274.702H528.289V277.294ZM546.047 279.374H543.263L541.103 276.254H540.975H538.719V279.374H536.127V268.174H540.975C543.967 268.174 545.839 269.726 545.839 272.238C545.839 273.918 544.991 275.15 543.535 275.774L546.047 279.374ZM543.215 272.238C543.215 271.006 542.415 270.286 540.831 270.286H538.719V274.19H540.831C542.415 274.19 543.215 273.454 543.215 272.238ZM566.232 268.174H568.712L565.048 279.374H562.264L559.8 271.79L557.256 279.374H554.488L550.808 268.174H553.496L556.024 276.046L558.664 268.174H561.064L563.624 276.11L566.232 268.174ZM569.839 279.374V268.174H572.431V279.374H569.839ZM582.481 268.174H585.041V279.374H582.913L577.329 272.574V279.374H574.769V268.174H576.913L582.481 274.974V268.174ZM591.051 279.566C589.275 279.566 587.483 279.038 586.491 278.27L587.371 276.318C588.315 277.006 589.723 277.486 591.067 277.486C592.603 277.486 593.227 276.974 593.227 276.286C593.227 274.19 586.715 275.63 586.715 271.47C586.715 269.566 588.251 267.982 591.435 267.982C592.843 267.982 594.283 268.318 595.323 268.974L594.523 270.942C593.483 270.35 592.411 270.062 591.419 270.062C589.883 270.062 589.291 270.638 589.291 271.342C589.291 273.406 595.803 271.982 595.803 276.094C595.803 277.966 594.251 279.566 591.051 279.566ZM609.033 276.878V273.598H611.401V278.142C610.169 279.07 608.473 279.566 606.873 279.566C603.353 279.566 600.761 277.15 600.761 273.774C600.761 270.398 603.353 267.982 606.921 267.982C608.889 267.982 610.521 268.654 611.609 269.918L609.945 271.454C609.129 270.59 608.185 270.19 607.049 270.19C604.873 270.19 603.385 271.646 603.385 273.774C603.385 275.87 604.873 277.358 607.017 277.358C607.721 277.358 608.377 277.23 609.033 276.878ZM618.913 279.566C615.377 279.566 612.785 277.102 612.785 273.774C612.785 270.446 615.377 267.982 618.913 267.982C622.433 267.982 625.041 270.43 625.041 273.774C625.041 277.118 622.433 279.566 618.913 279.566ZM618.913 277.358C620.913 277.358 622.417 275.902 622.417 273.774C622.417 271.646 620.913 270.19 618.913 270.19C616.913 270.19 615.409 271.646 615.409 273.774C615.409 275.902 616.913 277.358 618.913 277.358ZM626.669 279.374V268.174H629.261V277.262H634.877V279.374H626.669ZM636.005 279.374V268.174H641.093C644.757 268.174 647.269 270.382 647.269 273.774C647.269 277.166 644.757 279.374 641.093 279.374H636.005ZM638.597 277.246H640.965C643.189 277.246 644.645 275.918 644.645 273.774C644.645 271.63 643.189 270.302 640.965 270.302H638.597V277.246Z" fill="white"/>
<path d="M784.349 48C784.349 42.4772 788.827 38 794.349 38H1158.35C1163.87 38 1168.35 42.4772 1168.35 48V254H784.349V48Z" fill="white"/>
<path fill-rule="evenodd" clip-rule="evenodd" d="M1158.35 39H794.349C789.379 39 785.349 43.0294 785.349 48V253H1167.35V48C1167.35 43.0294 1163.32 39 1158.35 39ZM794.349 38C788.827 38 784.349 42.4772 784.349 48V254H1168.35V48C1168.35 42.4772 1163.87 38 1158.35 38H794.349Z" fill="black"/>
<path fill-rule="evenodd" clip-rule="evenodd" d="M784.349 254L1165.43 42.3367L1165.92 43.2109L784.835 254.874L784.349 254Z" fill="black" fill-opacity="0.35"/>
<path fill-rule="evenodd" clip-rule="evenodd" d="M1167.86 253.49L787.349 42.3363L787.835 41.4619L1168.35 252.615L1167.86 253.49Z" fill="black" fill-opacity="0.35"/>
<rect x="916.102" y="103.054" width="121.393" height="85.4462" fill="white"/>
<path d="M952.347 140.5C958.699 140.5 963.847 135.351 963.847 129C963.847 122.649 958.699 117.5 952.347 117.5C945.996 117.5 940.847 122.649 940.847 129C940.847 135.351 945.996 140.5 952.347 140.5Z" fill="#90979F" fill-opacity="0.55"/>
<path d="M1033.86 103.5H921.837C917.987 103.5 914.847 106.64 914.847 110.49V181.51C914.847 183.44 915.627 185.18 916.897 186.45C918.167 187.72 919.907 188.5 921.837 188.5H1033.86C1037.71 188.5 1040.85 185.36 1040.85 181.51V110.49C1040.85 106.64 1037.71 103.5 1033.86 103.5ZM918.847 181.51V110.49C918.847 108.84 920.187 107.5 921.837 107.5H1033.86C1035.51 107.5 1036.85 108.84 1036.85 110.49V181.51C1036.85 182.229 1036.6 182.879 1036.17 183.389L993.647 132.45C993.227 131.96 992.467 131.96 992.047 132.45L961.447 169.1L948.577 156.23C948.177 155.83 947.517 155.83 947.117 156.23L919.727 183.62C919.187 183.08 918.847 182.34 918.847 181.51Z" fill="#90979F" fill-opacity="0.55"/>
<path d="M784.349 252.874H1168.35V284.874C1168.35 290.397 1163.87 294.874 1158.35 294.874H794.349C788.827 294.874 784.349 290.397 784.349 284.874V252.874Z" fill="#1E1E1E"/>
<path d="M795.677 279.374V268.174H800.765C804.429 268.174 806.941 270.382 806.941 273.774C806.941 277.166 804.429 279.374 800.765 279.374H795.677ZM798.269 277.246H800.637C802.861 277.246 804.317 275.918 804.317 273.774C804.317 271.63 802.861 270.302 800.637 270.302H798.269V277.246ZM810.406 279.566C808.902 279.566 807.574 278.99 806.758 277.934L808.198 276.206C808.806 277.022 809.478 277.438 810.278 277.438C811.318 277.438 811.862 276.814 811.862 275.582V270.254H807.926V268.174H814.438V275.438C814.438 278.206 813.046 279.566 810.406 279.566ZM822.102 279.566C818.566 279.566 815.974 277.102 815.974 273.774C815.974 270.446 818.566 267.982 822.102 267.982C825.622 267.982 828.23 270.43 828.23 273.774C828.23 277.118 825.622 279.566 822.102 279.566ZM822.102 277.358C824.102 277.358 825.606 275.902 825.606 273.774C825.606 271.646 824.102 270.19 822.102 270.19C820.102 270.19 818.598 271.646 818.598 273.774C818.598 275.902 820.102 277.358 822.102 277.358ZM837.522 279.374L833.938 274.974L832.434 276.542V279.374H829.858V268.174H832.434V273.406L837.394 268.174H840.274L835.634 273.166L840.546 279.374H837.522ZM846.399 279.566C842.863 279.566 840.271 277.102 840.271 273.774C840.271 270.446 842.863 267.982 846.399 267.982C849.919 267.982 852.527 270.43 852.527 273.774C852.527 277.118 849.919 279.566 846.399 279.566ZM846.399 277.358C848.399 277.358 849.903 275.902 849.903 273.774C849.903 271.646 848.399 270.19 846.399 270.19C844.399 270.19 842.895 271.646 842.895 273.774C842.895 275.902 844.399 277.358 846.399 277.358ZM861.972 268.174H864.548L859.7 279.374H857.14L852.308 268.174H855.108L858.516 276.174L861.972 268.174ZM865.164 279.374V268.174H867.756V279.374H865.164ZM875.454 279.566C871.982 279.566 869.39 277.15 869.39 273.774C869.39 270.398 871.982 267.982 875.47 267.982C877.406 267.982 879.022 268.686 880.078 269.966L878.414 271.502C877.662 270.638 876.718 270.19 875.598 270.19C873.502 270.19 872.014 271.662 872.014 273.774C872.014 275.886 873.502 277.358 875.598 277.358C876.718 277.358 877.662 276.91 878.414 276.03L880.078 277.566C879.022 278.862 877.406 279.566 875.454 279.566ZM893.943 273.55C895.191 273.95 895.991 274.91 895.991 276.318C895.991 278.254 894.455 279.374 891.511 279.374H885.719V268.174H891.191C893.991 268.174 895.431 269.342 895.431 271.086C895.431 272.206 894.855 273.07 893.943 273.55ZM890.871 270.126H888.295V272.766H890.871C892.135 272.766 892.823 272.318 892.823 271.438C892.823 270.558 892.135 270.126 890.871 270.126ZM891.319 277.422C892.663 277.422 893.383 277.006 893.383 276.046C893.383 275.102 892.663 274.654 891.319 274.654H888.295V277.422H891.319ZM900.21 277.294H906.306V279.374H897.634V268.174H906.098V270.254H900.21V272.686H905.41V274.702H900.21V277.294ZM916.416 279.374L915.424 276.974H910.224L909.232 279.374H906.576L911.568 268.174H914.128L919.136 279.374H916.416ZM911.056 275.006H914.608L912.832 270.718L911.056 275.006ZM921.735 279.374V270.286H918.151V268.174H927.911V270.286H924.327V279.374H921.735ZM932.588 279.566C930.812 279.566 929.02 279.038 928.028 278.27L928.908 276.318C929.852 277.006 931.26 277.486 932.604 277.486C934.14 277.486 934.764 276.974 934.764 276.286C934.764 274.19 928.252 275.63 928.252 271.47C928.252 269.566 929.788 267.982 932.972 267.982C934.38 267.982 935.82 268.318 936.86 268.974L936.06 270.942C935.02 270.35 933.948 270.062 932.956 270.062C931.42 270.062 930.828 270.638 930.828 271.342C930.828 273.406 937.34 271.982 937.34 276.094C937.34 277.966 935.788 279.566 932.588 279.566ZM950.714 268.174H953.274V279.374H951.146L945.562 272.574V279.374H943.002V268.174H945.146L950.714 274.974V268.174ZM955.604 279.374V268.174H958.196V279.374H955.604ZM964.214 279.566C962.438 279.566 960.646 279.038 959.654 278.27L960.534 276.318C961.478 277.006 962.886 277.486 964.23 277.486C965.766 277.486 966.39 276.974 966.39 276.286C966.39 274.19 959.878 275.63 959.878 271.47C959.878 269.566 961.414 267.982 964.598 267.982C966.006 267.982 967.446 268.318 968.486 268.974L967.686 270.942C966.646 270.35 965.574 270.062 964.582 270.062C963.046 270.062 962.454 270.638 962.454 271.342C962.454 273.406 968.966 271.982 968.966 276.094C968.966 277.966 967.414 279.566 964.214 279.566ZM978.097 268.174H980.689V279.374H978.097V274.782H973.009V279.374H970.417V268.174H973.009V272.59H978.097V268.174ZM983.019 279.374V268.174H985.611V279.374H983.019ZM995.613 279.374L992.029 274.974L990.525 276.542V279.374H987.949V268.174H990.525V273.406L995.485 268.174H998.365L993.725 273.166L998.637 279.374H995.613ZM1004.49 279.566C1000.95 279.566 998.363 277.102 998.363 273.774C998.363 270.446 1000.95 267.982 1004.49 267.982C1008.01 267.982 1010.62 270.43 1010.62 273.774C1010.62 277.118 1008.01 279.566 1004.49 279.566ZM1004.49 277.358C1006.49 277.358 1007.99 275.902 1007.99 273.774C1007.99 271.646 1006.49 270.19 1004.49 270.19C1002.49 270.19 1000.99 271.646 1000.99 273.774C1000.99 275.902 1002.49 277.358 1004.49 277.358ZM1022.17 279.374H1019.38L1017.22 276.254H1017.09H1014.84V279.374H1012.25V268.174H1017.09C1020.09 268.174 1021.96 269.726 1021.96 272.238C1021.96 273.918 1021.11 275.15 1019.65 275.774L1022.17 279.374ZM1019.33 272.238C1019.33 271.006 1018.53 270.286 1016.95 270.286H1014.84V274.19H1016.95C1018.53 274.19 1019.33 273.454 1019.33 272.238ZM1023.69 279.374V268.174H1026.28V279.374H1023.69ZM1035.15 279.374V270.286H1031.57V268.174H1041.33V270.286H1037.75V279.374H1035.15ZM1047.67 279.566C1044.14 279.566 1041.54 277.102 1041.54 273.774C1041.54 270.446 1044.14 267.982 1047.67 267.982C1051.19 267.982 1053.8 270.43 1053.8 273.774C1053.8 277.118 1051.19 279.566 1047.67 279.566ZM1047.67 277.358C1049.67 277.358 1051.18 275.902 1051.18 273.774C1051.18 271.646 1049.67 270.19 1047.67 270.19C1045.67 270.19 1044.17 271.646 1044.17 273.774C1044.17 275.902 1045.67 277.358 1047.67 277.358ZM1074.09 268.174H1076.57L1072.9 279.374H1070.12L1067.66 271.79L1065.11 279.374H1062.34L1058.66 268.174H1061.35L1063.88 276.046L1066.52 268.174H1068.92L1071.48 276.11L1074.09 268.174ZM1077.69 279.374V268.174H1080.29V279.374H1077.69ZM1090.34 268.174H1092.9V279.374H1090.77L1085.18 272.574V279.374H1082.62V268.174H1084.77L1090.34 274.974V268.174ZM1107.01 276.878V273.598H1109.37V278.142C1108.14 279.07 1106.45 279.566 1104.85 279.566C1101.33 279.566 1098.73 277.15 1098.73 273.774C1098.73 270.398 1101.33 267.982 1104.89 267.982C1106.86 267.982 1108.49 268.654 1109.58 269.918L1107.92 271.454C1107.1 270.59 1106.16 270.19 1105.02 270.19C1102.85 270.19 1101.36 271.646 1101.36 273.774C1101.36 275.87 1102.85 277.358 1104.99 277.358C1105.69 277.358 1106.35 277.23 1107.01 276.878ZM1116.89 279.566C1113.35 279.566 1110.76 277.102 1110.76 273.774C1110.76 270.446 1113.35 267.982 1116.89 267.982C1120.41 267.982 1123.01 270.43 1123.01 273.774C1123.01 277.118 1120.41 279.566 1116.89 279.566ZM1116.89 277.358C1118.89 277.358 1120.39 275.902 1120.39 273.774C1120.39 271.646 1118.89 270.19 1116.89 270.19C1114.89 270.19 1113.38 271.646 1113.38 273.774C1113.38 275.902 1114.89 277.358 1116.89 277.358ZM1124.64 279.374V268.174H1127.23V277.262H1132.85V279.374H1124.64ZM1133.98 279.374V268.174H1139.07C1142.73 268.174 1145.24 270.382 1145.24 273.774C1145.24 277.166 1142.73 279.374 1139.07 279.374H1133.98ZM1136.57 277.246H1138.94C1141.16 277.246 1142.62 275.918 1142.62 273.774C1142.62 271.63 1141.16 270.302 1138.94 270.302H1136.57V277.246Z" fill="white"/>
<path d="M1176.35 48C1176.35 42.4772 1180.83 38 1186.35 38H1550.35C1555.87 38 1560.35 42.4772 1560.35 48V254H1176.35V48Z" fill="white"/>
<path fill-rule="evenodd" clip-rule="evenodd" d="M1550.35 39H1186.35C1181.38 39 1177.35 43.0294 1177.35 48V253H1559.35V48C1559.35 43.0294 1555.32 39 1550.35 39ZM1186.35 38C1180.83 38 1176.35 42.4772 1176.35 48V254H1560.35V48C1560.35 42.4772 1555.87 38 1550.35 38H1186.35Z" fill="black"/>
<path fill-rule="evenodd" clip-rule="evenodd" d="M1176.35 254L1557.43 42.3367L1557.92 43.2109L1176.83 254.874L1176.35 254Z" fill="black" fill-opacity="0.35"/>
<path fill-rule="evenodd" clip-rule="evenodd" d="M1559.86 253.49L1179.35 42.3363L1179.83 41.4619L1560.35 252.615L1559.86 253.49Z" fill="black" fill-opacity="0.35"/>
<rect x="1308.1" y="103.054" width="121.393" height="85.4462" fill="white"/>
<path d="M1344.35 140.5C1350.7 140.5 1355.85 135.351 1355.85 129C1355.85 122.649 1350.7 117.5 1344.35 117.5C1338 117.5 1332.85 122.649 1332.85 129C1332.85 135.351 1338 140.5 1344.35 140.5Z" fill="#90979F" fill-opacity="0.55"/>
<path d="M1425.86 103.5H1313.84C1309.99 103.5 1306.85 106.64 1306.85 110.49V181.51C1306.85 183.44 1307.63 185.18 1308.9 186.45C1310.17 187.72 1311.91 188.5 1313.84 188.5H1425.86C1429.71 188.5 1432.85 185.36 1432.85 181.51V110.49C1432.85 106.64 1429.71 103.5 1425.86 103.5ZM1310.85 181.51V110.49C1310.85 108.84 1312.19 107.5 1313.84 107.5H1425.86C1427.51 107.5 1428.85 108.84 1428.85 110.49V181.51C1428.85 182.229 1428.6 182.879 1428.17 183.389L1385.65 132.45C1385.23 131.96 1384.47 131.96 1384.05 132.45L1353.45 169.1L1340.58 156.23C1340.18 155.83 1339.52 155.83 1339.12 156.23L1311.73 183.62C1311.19 183.08 1310.85 182.34 1310.85 181.51Z" fill="#90979F" fill-opacity="0.55"/>
<path d="M1176.35 252.874H1560.35V284.874C1560.35 290.397 1555.87 294.874 1550.35 294.874H1186.35C1180.83 294.874 1176.35 290.397 1176.35 284.874V252.874Z" fill="#1E1E1E"/>
<path d="M1190.38 277.262H1196.75V279.374H1186.96V277.694L1193.1 270.286H1187.09V268.174H1196.51V269.854L1190.38 277.262ZM1206.28 268.174H1208.86L1204.01 279.374H1201.45L1196.62 268.174H1199.42L1202.83 276.174L1206.28 268.174ZM1212.05 277.294H1218.15V279.374H1209.47V268.174H1217.94V270.254H1212.05V272.686H1217.25V274.702H1212.05V277.294ZM1229.81 279.374H1227.03L1224.87 276.254H1224.74H1222.48V279.374H1219.89V268.174H1224.74C1227.73 268.174 1229.6 269.726 1229.6 272.238C1229.6 273.918 1228.75 275.15 1227.3 275.774L1229.81 279.374ZM1226.98 272.238C1226.98 271.006 1226.18 270.286 1224.59 270.286H1222.48V274.19H1224.59C1226.18 274.19 1226.98 273.454 1226.98 272.238ZM1233.91 277.294H1240.01V279.374H1231.33V268.174H1239.8V270.254H1233.91V272.686H1239.11V274.702H1233.91V277.294ZM1249.78 268.174H1252.36L1247.51 279.374H1244.95L1240.12 268.174H1242.92L1246.33 276.174L1249.78 268.174ZM1271.87 268.174H1274.35L1270.69 279.374H1267.9L1265.44 271.79L1262.89 279.374H1260.13L1256.45 268.174H1259.13L1261.66 276.046L1264.3 268.174H1266.7L1269.26 276.11L1271.87 268.174ZM1275.48 279.374V268.174H1278.07V279.374H1275.48ZM1288.12 268.174H1290.68V279.374H1288.55L1282.97 272.574V279.374H1280.41V268.174H1282.55L1288.12 274.974V268.174ZM1296.69 279.566C1294.91 279.566 1293.12 279.038 1292.13 278.27L1293.01 276.318C1293.95 277.006 1295.36 277.486 1296.7 277.486C1298.24 277.486 1298.86 276.974 1298.86 276.286C1298.86 274.19 1292.35 275.63 1292.35 271.47C1292.35 269.566 1293.89 267.982 1297.07 267.982C1298.48 267.982 1299.92 268.318 1300.96 268.974L1300.16 270.942C1299.12 270.35 1298.05 270.062 1297.06 270.062C1295.52 270.062 1294.93 270.638 1294.93 271.342C1294.93 273.406 1301.44 271.982 1301.44 276.094C1301.44 277.966 1299.89 279.566 1296.69 279.566ZM1314.67 276.878V273.598H1317.04V278.142C1315.81 279.07 1314.11 279.566 1312.51 279.566C1308.99 279.566 1306.4 277.15 1306.4 273.774C1306.4 270.398 1308.99 267.982 1312.56 267.982C1314.53 267.982 1316.16 268.654 1317.25 269.918L1315.58 271.454C1314.77 270.59 1313.82 270.19 1312.69 270.19C1310.51 270.19 1309.02 271.646 1309.02 273.774C1309.02 275.87 1310.51 277.358 1312.65 277.358C1313.36 277.358 1314.01 277.23 1314.67 276.878ZM1324.55 279.566C1321.01 279.566 1318.42 277.102 1318.42 273.774C1318.42 270.446 1321.01 267.982 1324.55 267.982C1328.07 267.982 1330.68 270.43 1330.68 273.774C1330.68 277.118 1328.07 279.566 1324.55 279.566ZM1324.55 277.358C1326.55 277.358 1328.05 275.902 1328.05 273.774C1328.05 271.646 1326.55 270.19 1324.55 270.19C1322.55 270.19 1321.05 271.646 1321.05 273.774C1321.05 275.902 1322.55 277.358 1324.55 277.358ZM1332.31 279.374V268.174H1334.9V277.262H1340.51V279.374H1332.31ZM1341.64 279.374V268.174H1346.73C1350.39 268.174 1352.91 270.382 1352.91 273.774C1352.91 277.166 1350.39 279.374 1346.73 279.374H1341.64ZM1344.23 277.246H1346.6C1348.83 277.246 1350.28 275.918 1350.28 273.774C1350.28 271.63 1348.83 270.302 1346.6 270.302H1344.23V277.246Z" fill="white"/>
</svg>
